<?xml version="1.0" encoding="UTF-8"?>
<svg width="18px" height="20px" viewBox="0 0 18 20" version="1.1" xmlns="http://www.w3.org/2000/svg" xmlns:xlink="http://www.w3.org/1999/xlink">
    <title>icon-tips</title>
    <g id="uat续费" stroke="none" stroke-width="1" fill="none" fill-rule="evenodd">
        <g id="选择帐号类型" transform="translate(-382.000000, -674.000000)" fill="#FFB010" fill-rule="nonzero">
            <g id="icon-tips" transform="translate(382.000000, 674.000000)">
                <path d="M3.30006445,2.75145117 C3.065625,2.5171875 2.68558594,2.5171875 2.45167383,2.75145117 C2.21725195,2.98569727 2.21725195,3.36556055 2.45167383,3.6 L3.30006445,4.44837305 C3.53431055,4.6828125 3.91399805,4.6828125 4.1484375,4.44837305 C4.38287695,4.21412695 4.38287695,3.83426367 4.1484375,3.6 L3.30006445,2.75145117 Z M14.7000059,2.75145117 L13.8516855,3.6 C13.6171934,3.83426367 13.6171934,4.21412695 13.8516855,4.44837305 C14.0857031,4.6828125 14.4653906,4.6828125 14.7000059,4.44837305 L15.5482031,3.6 C15.7828184,3.36556055 15.7828184,2.98569727 15.5482031,2.75145117 C15.3141855,2.5171875 14.934498,2.5171875 14.7000059,2.75145117 L14.7000059,2.75145117 Z M1.8,7.49993555 L0.600064453,7.49993555 C0.268646484,7.49993555 0,7.76859961 0,8.1 C0,8.43122461 0.268646484,8.69988867 0.600064453,8.69988867 L1.8,8.69988867 C2.13141797,8.69988867 2.40006445,8.43122461 2.40006445,8.1 C2.40006445,7.76859961 2.13141797,7.49993555 1.8,7.49993555 Z M17.3997598,7.49993555 L16.2,7.49993555 C15.8684766,7.49993555 15.6001113,7.76858203 15.6001113,8.1 C15.6001113,8.43122461 15.8684766,8.69988867 16.2,8.69988867 L17.3997598,8.69988867 C17.7312832,8.69988867 18,8.43122461 18,8.1 C18,7.76859961 17.7312832,7.49993555 17.3997598,7.49993555 Z M8.40011133,0.599888672 L8.40011133,1.8 C8.40011133,2.13141797 8.66847656,2.39988867 9,2.39988867 C9.33152344,2.39988867 9.59988867,2.13140039 9.59988867,1.8 L9.59988867,0.599888672 C9.59988867,0.268646484 9.33152344,-1.20403687e-13 9,-1.20403687e-13 C8.66847656,-1.20403687e-13 8.40011133,0.268646484 8.40011133,0.599888672 Z" id="形状"></path>
                <path d="M5.01876443,5.4643253 C7.26395391,3.37907034 10.7377875,3.3796266 12.9823091,5.46560049 L12.9823091,5.46560049 L13.1289938,5.60668076 C15.2370737,7.70502203 15.4388457,11.069215 13.5659213,13.4077313 C13.4564431,13.5440491 12.8675307,14.1532059 12.8197753,14.2051989 L12.8197753,14.2051989 L12.6879411,14.3521507 C12.1369285,14.9820205 11.85,15.5255568 11.85,16.125 L11.85,16.125 L11.85,18 L11.8455248,18.110721 C11.7892055,18.8045149 11.2083052,19.35 10.5,19.35 L10.5,19.35 L7.5,19.35 L7.38927901,19.3455248 C6.69548507,19.2892055 6.15,18.7083052 6.15,18 L6.15,18 L6.15,16.125 L6.14491437,15.9875738 C6.10088307,15.3958139 5.7715101,14.8491776 5.17920118,14.2044734 C5.14118472,14.1630941 4.71166677,13.7183422 4.51374285,13.499386 L4.51374285,13.499386 L4.43249748,13.4061299 C2.51788387,11.0139911 2.77357494,7.54958026 5.01876443,5.4643253 Z M10.65,17.1 L7.35,17.1 L7.35,18.15 L10.65,18.15 L10.65,17.1 Z M12.1651971,6.34409381 C10.3812857,4.68638588 7.62057635,4.68579661 5.83595743,6.34274285 C4.05133851,7.99968909 3.84737809,10.752854 5.368355,12.6546859 C5.37652011,12.664845 5.38961724,12.679902 5.40796396,12.7002292 L5.40796396,12.7002292 L5.98432695,13.3089702 L6.21602763,13.5627495 C6.90335429,14.3465418 7.24775483,15.0115586 7.33064638,15.7663741 L7.33064638,15.7663741 L7.34532077,15.9 L8.4,15.9 L8.4,12.14925 L9.6,12.14925 L9.6,15.9 L10.6546792,15.9 L10.6693536,15.7663741 L10.6911453,15.6059445 C10.8117904,14.8629741 11.1996692,14.1948698 11.9357087,13.3937333 L11.9357087,13.3937333 L12.4718448,12.8298267 L12.6300225,12.6563388 C14.1518937,10.7550534 13.9491086,8.00180175 12.1651971,6.34409381 Z" id="形状结合"></path>
            </g>
        </g>
    </g>
</svg>