<?xml version="1.0" encoding="UTF-8"?>
<svg width="48px" height="48px" viewBox="0 0 48 48" version="1.1" xmlns="http://www.w3.org/2000/svg" xmlns:xlink="http://www.w3.org/1999/xlink">
    <title>icon-personal</title>
    <g id="uat续费" stroke="none" stroke-width="1" fill="none" fill-rule="evenodd">
        <g id="选择帐号类型" transform="translate(-509.000000, -192.000000)">
            <g id="编组-2" transform="translate(379.000000, 152.000000)">
                <g id="icon-personal" transform="translate(130.000000, 40.000000)">
                    <polygon id="路径" points="0 0 48 0 48 48 0 48"></polygon>
                    <path d="M8,43.9047619 C8,35.0882434 15.163444,27.9410431 24,27.9410431 C32.836556,27.9410431 40,35.0882434 40,43.9047619 L8,43.9047619 L8,43.9047619 Z M26,32.0975964 L26,39.9138322 L35.318,39.9138322 C33.8621385,35.8154994 30.296658,32.8246606 26,32.0975964 L26,32.0975964 Z M22,39.9138322 L22,32.0975964 C17.703342,32.8246606 14.1378615,35.8154994 12.682,39.9138322 L22,39.9138322 L22,39.9138322 Z M24,25.9455782 C17.37,25.9455782 12,20.5877551 12,13.9727891 C12,7.35782313 17.37,2 24,2 C30.63,2 36,7.35782313 36,13.9727891 C36,20.5877551 30.63,25.9455782 24,25.9455782 Z M24,21.9546485 C28.42,21.9546485 32,18.3827664 32,13.9727891 C32,9.56281179 28.42,5.99092971 24,5.99092971 C19.58,5.99092971 16,9.56281179 16,13.9727891 C16,18.3827664 19.58,21.9546485 24,21.9546485 Z" id="形状" fill="#7A8BA6" fill-rule="nonzero"></path>
                </g>
            </g>
        </g>
    </g>
</svg>