<?xml version="1.0" encoding="UTF-8"?>
<svg width="49px" height="48px" viewBox="0 0 49 48" version="1.1" xmlns="http://www.w3.org/2000/svg" xmlns:xlink="http://www.w3.org/1999/xlink">
    <title>icon-company</title>
    <g id="uat续费" stroke="none" stroke-width="1" fill="none" fill-rule="evenodd">
        <g id="选择帐号类型" transform="translate(-883.000000, -192.000000)">
            <g id="编组-2" transform="translate(379.000000, 152.000000)">
                <g id="个人备份" transform="translate(374.000000, 0.000000)">
                    <g id="icon-company" transform="translate(130.000000, 40.000000)">
                        <path d="M44.9090909,36.8888889 L49,36.8888889 L49,41 L4,41 L4,36.8888889 L8.09090909,36.8888889 L8.09090909,6.05555556 C8.09090909,4.92030357 9.00669028,4 10.1363636,4 L30.5909091,4 C31.7205824,4 32.6363636,4.92030357 32.6363636,6.05555556 L32.6363636,36.8888889 L40.8181818,36.8888889 L40.8181818,20.4444444 L36.7272727,20.4444444 L36.7272727,16.3333333 L42.8636364,16.3333333 C43.9933097,16.3333333 44.9090909,17.2536369 44.9090909,18.3888889 L44.9090909,36.8888889 Z M12.1818182,8.11111111 L12.1818182,36.8888889 L28.5454545,36.8888889 L28.5454545,8.11111111 L12.1818182,8.11111111 Z M16.2727273,20.4444444 L24.4545455,20.4444444 L24.4545455,24.5555556 L16.2727273,24.5555556 L16.2727273,20.4444444 Z M16.2727273,12.2222222 L24.4545455,12.2222222 L24.4545455,16.3333333 L16.2727273,16.3333333 L16.2727273,12.2222222 Z" id="形状" fill="#7A8BA6" fill-rule="nonzero"></path>
                        <polygon id="路径" points="0 0 48 0 48 48 0 48"></polygon>
                    </g>
                </g>
            </g>
        </g>
    </g>
</svg>